<?xml version="1.0" encoding="utf-8"?>
<!-- Generator: Adobe Illustrator 25.3.1, SVG Export Plug-In . SVG Version: 6.00 Build 0)  -->
<svg version="1.1" id="Capa_1" xmlns="http://www.w3.org/2000/svg" xmlns:xlink="http://www.w3.org/1999/xlink" x="0px" y="0px"
	 viewBox="0 0 32 36.7" style="enable-background:new 0 0 32 36.7;" xml:space="preserve">
<style type="text/css">
	.st0{fill:#101010;}
	.st1{fill:#4EF500;}
</style>
<g>
	<ellipse id="Elipse_1" class="st0" cx="16" cy="18.7" rx="13.3" ry="11.9"/>
	<path id="Trazado_1" class="st1" d="M16,0C7.2,0,0,7.2,0,16s9.2,20.7,16,20.7S32,24.8,32,16C31.9,7.2,24.8,0,16,0z M6.5,23.3
		c-2.3-2.3-3.1-5.4-1.6-6.8c1.5-1.4,4.5-0.7,6.8,1.6s3.1,5.4,1.6,6.8S8.8,25.6,6.5,23.3z M18,28.2c-1.1,0.9-2.8,0.9-4.1,0
		c-0.3-0.2-0.3-0.5-0.1-0.8c0.2-0.3,0.5-0.3,0.8-0.1c0.8,0.6,1.9,0.6,2.7,0c0.3-0.2,0.6-0.2,0.8,0.1C18.4,27.7,18.2,27.9,18,28.2
		L18,28.2L18,28.2z M18.7,24.9c-1.4-1.4-0.7-4.5,1.6-6.8s5.4-3.1,6.8-1.6c1.4,1.5,0.7,4.5-1.6,6.8S20.1,26.4,18.7,24.9z"/>
</g>
</svg>
