<svg enable-background="new 0 0 146.8 42.3" viewBox="0 0 146.8 42.3" xmlns="http://www.w3.org/2000/svg"><g enable-background="new" fill="#fff"><path d="m28.8 22.1c2 1.4 3 3.6 3 6.4 0 2.9-1.4 5.2-4.3 6.9s-6.7 2.7-11.5 2.7-8.5-.9-11.2-2.6-4-3.9-4-6.5c0-.6.3-.9 1-.9h8.8c.6 0 1.1.2 1.5.5.8.7 2.2 1.1 4.2 1.1 2.7 0 4.1-.4 4.1-1.2 0-.5-.4-.9-1.3-1.2s-2.6-.6-5.1-.9c-8.1-.9-12.2-3.9-12.2-9 0-2.9 1.3-5.2 3.9-6.9 2.6-1.8 6.1-2.6 10.5-2.6s7.9.9 10.6 2.8 4 3.9 4 6c0 .3-.1.5-.3.7s-.4.3-.8.3h-9.2c-.5 0-1-.2-1.3-.5-.7-.6-1.7-.9-3.1-.9-1.9 0-2.9.4-2.9 1.2 0 .4.4.7 1.1 1s2.2.5 4.5.7c4.7.5 8 1.5 10 2.9z"/><path d="m60.4 7.9h7.9c.3 0 .6.1.8.3s.3.5.3.8v27.8c0 .3-.1.6-.3.8s-.5.3-.8.3h-7.8c-.3 0-.6-.1-.8-.3s-.3-.5-.3-.8v-13.2l-3.1 6.2c-.2.3-.4.6-.8.8-.3.2-.7.3-1 .3h-2.9c-.5 0-.9-.1-1.2-.4s-.5-.5-.6-.7l-3.1-6.2v13.3c0 .3-.1.6-.3.8-.4.2-.7.3-1 .3h-7.8c-.3 0-.6-.1-.8-.3s-.3-.5-.3-.8v-27.8c0-.3.1-.6.3-.8s.5-.3.8-.3h7.9c.8 0 1.4.4 1.8 1.2l5.6 10.3 5.6-10.3c.5-.9 1.1-1.3 1.9-1.3z"/></g><path d="m132.4 19.5h12.5c.3 0 .6.1.8.3s.3.5.3.8v4.6c0 4.4-1.5 7.6-4.5 9.7s-6.9 3.2-11.8 3.2-8.8-1-11.8-3.1-4.5-5.2-4.5-9.5v-4.9c0-2.2.4-4.1 1.3-5.7.8-1.6 2-3 3.5-4 3-2 6.8-2.9 11.4-2.9 2.3 0 4.4.3 6.3.8s3.4 1.1 4.6 1.9c1.1.8 2.1 1.6 2.9 2.5 1.4 1.5 2.1 2.9 2.1 4.1 0 .2-.1.5-.3.6-.2.2-.4.3-.7.3h-9.5c-.6 0-1-.1-1.2-.4-.9-.9-2.1-1.4-3.6-1.4s-2.7.3-3.6.9-1.3 1.3-1.3 2.2v6.9c0 1.1.4 1.9 1.3 2.5s2.1.9 3.6.9 2.8-.3 3.6-.9 1.3-1.3 1.3-2.2h-2.7c-.3 0-.6-.1-.8-.3s-.3-.5-.3-.8v-4.8c0-.3.1-.6.3-.8.2-.4.5-.5.8-.5z" fill="#fff"/><ellipse cx="92.1" cy="21.5" fill="#101010" rx="15" ry="13.5"/><path d="m92.1.4c-10 0-18.1 8.1-18.1 18.1s10.4 23.4 18.1 23.4 18.1-13.4 18.1-23.4c-.1-10-8.2-18.1-18.1-18.1zm-10.8 26.4c-2.6-2.6-3.5-6.1-1.8-7.7s5.1-.8 7.7 1.8 3.5 6.1 1.8 7.7-5 .8-7.7-1.8zm13.1 5.5c-1.3 1-3.2 1-4.6 0-.3-.2-.3-.6-.1-.9s.6-.3.9-.1c.9.7 2.2.7 3.1 0 .3-.2.7-.2.9.1s0 .6-.2.9zm.7-3.7c-1.6-1.6-.8-5.1 1.8-7.7s6.1-3.5 7.7-1.8.8 5.1-1.8 7.7-6.1 3.5-7.7 1.8z" fill="#4ef500"/></svg>